<mxfile host="app.diagrams.net" modified="2023-12-12T17:41:09.317Z" agent="Mozilla/5.0 (Windows NT 10.0; Win64; x64) AppleWebKit/537.36 (KHTML, like Gecko) Chrome/118.0.5993.731 YaBrowser/23.11.1.731 Yowser/2.5 Safari/537.36" version="22.1.8" etag="MMTTJrB-WXNbrNVHkxM8" type="github">
  <diagram name="Страница — 1" id="KE5Lj5eWWEPsrmsLWJN3">
    <mxGraphModel>
      <root>
        <mxCell id="0" />
        <mxCell id="1" parent="0" />
      </root>
    </mxGraphModel>
  </diagram>
</mxfile>
